<?xml version="1.0" standalone="no"?>
<!DOCTYPE svg PUBLIC "-//W3C//DTD SVG 20010904//EN"
 "http://www.w3.org/TR/2001/REC-SVG-20010904/DTD/svg10.dtd">
<svg version="1.0" xmlns="http://www.w3.org/2000/svg"
 width="512.000000pt" height="512.000000pt" viewBox="0 0 512.000000 512.000000"
 preserveAspectRatio="xMidYMid meet">
<metadata>
Created by potrace 1.14, written by Peter Selinger 2001-2017
</metadata>
<g transform="translate(0.000000,512.000000) scale(0.100000,-0.100000)"
fill="#000000" stroke="none">
<path d="M0 2560 l0 -2560 2560 0 2560 0 0 2560 0 2560 -2560 0 -2560 0 0
-2560z m2678 1753 c48 -95 112 -328 132 -481 14 -102 17 -96 -127 -243 -185
-188 -281 -339 -324 -509 -38 -148 -17 -337 52 -472 10 -20 19 -40 19 -43 0
-4 -44 17 -97 45 -328 171 -455 433 -354 730 53 157 131 280 292 460 217 243
327 400 372 533 9 25 14 22 35 -20z m522 -381 c67 -184 90 -364 61 -469 -15
-53 -42 -76 -188 -153 -162 -86 -256 -151 -339 -235 -119 -120 -192 -266 -216
-435 -11 -73 -13 -78 -25 -58 -7 13 -27 66 -44 118 -60 180 -50 359 27 521 68
141 210 305 394 453 97 77 166 164 228 284 52 100 57 98 102 -26z m-1252 -71
c46 -99 82 -207 82 -244 0 -16 -8 -41 -19 -55 -31 -45 -88 -164 -105 -222 -89
-297 20 -562 309 -749 38 -24 63 -47 56 -49 -7 -2 -63 1 -124 7 -254 27 -442
135 -529 304 -58 114 -73 297 -38 445 24 100 41 135 137 279 80 121 157 275
167 336 9 50 21 40 64 -52z m1609 -329 c-25 -506 -261 -864 -634 -963 -102
-28 -353 -40 -353 -17 0 27 40 169 67 235 55 139 179 286 318 380 33 22 122
73 198 114 106 56 160 92 228 153 78 69 169 181 169 207 0 5 3 9 7 9 3 0 3
-53 0 -118z m-752 -1182 l0 -105 -357 -3 -358 -2 0 110 0 110 358 -2 357 -3 0
-105z m-145 -187 c0 -50 -174 -1370 -182 -1380 -14 -17 -63 -17 -78 1 -7 9
-41 286 -86 693 -41 373 -74 681 -74 686 0 4 95 7 210 7 116 0 210 -3 210 -7z"/>
</g>
</svg>
